<?xml version="1.0" standalone="no"?><!DOCTYPE svg PUBLIC "-//W3C//DTD SVG 1.1//EN" "http://www.w3.org/Graphics/SVG/1.1/DTD/svg11.dtd"><svg t="1764812248996" class="icon" viewBox="0 0 1024 1024" version="1.1" xmlns="http://www.w3.org/2000/svg" p-id="50041" width="128" height="128" xmlns:xlink="http://www.w3.org/1999/xlink"><path d="M532.992 134.656c-12.288-35.328-31.744-35.328-44.032 0l-68.096 199.68c-11.776 35.328-50.688 74.24-86.528 86.528L136.192 488.448c-35.328 12.288-35.328 31.744 0 44.032l197.12 68.608c35.328 12.288 74.24 51.2 86.528 86.528l69.12 200.192c12.288 35.328 31.744 35.328 44.032 0l67.072-199.168c11.776-35.328 50.688-74.24 86.016-86.528l201.728-69.12c35.328-12.288 35.328-31.744 0-44.032l-198.656-67.072c-35.328-11.776-74.24-50.688-86.528-86.016-0.512 0.512-69.632-201.216-69.632-201.216z" fill="#8571FE" p-id="50042"></path></svg>